<?xml version="1.0" encoding="UTF-8"?><svg id="b" xmlns="http://www.w3.org/2000/svg" viewBox="0 0 50.9995 43.9894"><g id="c"><g id="d"><path d="m.0781,7.879C-.6902,7.2387,4.4319,1.1603,5.5843.5801,6.7368,0,13.9076-.1882,14.6759.5801c.7683.7683,0,2.561,0,2.561,0,0-8.9635,4.7379-9.988,14.9819-1.0244,10.2441,4.5044,14.1495,6.2745,14.7258s5.8951,1.9382,9.922-.0082c2.3867-1.1536,3.7795-4.0894,2.627-6.1383-1.1525-2.0488-2.8171-2.433-6.4025-2.6891s-5.8903,1.0244-6.9147.7683,8.8355-16.5185,8.8355-16.5185c0,0-3.0732.1281-3.5854-.6403s3.2013-6.4626,4.3537-7.0428c1.1524-.58,14.9819-.7681,16.1343.0002,1.1525.7683,0,2.9452,0,2.9452l-7.4269,3.7135s3.3293,3.3293,5.8903,7.8111c2.561,4.4818,10.3721,23.1772,10.3721,23.1772,0,0-1.2805-19.0796-1.6647-22.9211-.3842-3.8415-1.0562-7.1196-1.9208-7.0428s-2.1769.2561-2.9452,0,5.8903-7.0428,7.2989-7.683c1.4086-.6403,4.3537-.8964,5.122,0s0,2.0488,0,2.0488c0,0-1.0303,1.4072-1.9208,2.9452-1.4086,2.433-1.1525,6.7867-1.1525,6.7867v31.6285h-2.3049s-8.7074-13.9575-12.677-20.6162c-3.9696-6.6586-9.988-13.1892-9.988-13.1892l-5.5062,7.4269s5.5062,0,7.555,2.3049c2.0488,2.3049,3.2013,6.0184,1.6647,10.7563-1.5366,4.7379-7.036,8.9764-12.549,8.7074-5.2501-.2561-9.9577-3.6341-11.397-8.6067-1.4765-5.1011-1.5361-6.8874-1.0239-11.2411s2.433-11.3965,2.433-11.3965c0,0-2.9452.3842-3.7135-.2561h.0002Z" style="fill:#95623a;"/></g></g></svg>